<?xml version="1.0" encoding="utf-8"?>
<svg version="1.1" xmlns="http://www.w3.org/2000/svg" xmlns:xlink="http://www.w3.org/1999/xlink" x="0px" y="0px"
	 viewBox="0 0 64 64" style="enable-background:new 0 0 64 64;" xml:space="preserve">
<style type="text/css">
	.st0{fill:#E0995E;}
	.st1{opacity:0.2;}
	.st2{fill:#231F20;}
	.st3{fill:#77B3D4;}
	.st4{fill:#FFFFFF;}
	.st5{fill:#4F5D73;}
	.st6{fill:#F5CF87;}
	.st7{fill:#DDDDDD;}
	.st8{fill:#999999;}
	.st9{fill:#666666;}
</style>
<g id="Layer_1">
	<circle class="st0" cx="32" cy="32" r="32"/>
</g>
<g class="st1">
	<g>
		<path class="st2" d="M48,14H16c-2.2,0-4,1.8-4,4v8v24c0,2.2,1.8,4,4,4h32c2.2,0,4-1.8,4-4V26v-8C52,15.8,50.2,14,48,14z"/>
	</g>
</g>
<g id="Layer_2">
	<!-- Main photo frame -->
	<rect x="16" y="16" width="32" height="32" rx="2" ry="2" class="st4"/>
	
	<!-- Color spectrum on left -->
	<rect x="18" y="18" width="13" height="28" rx="1" ry="1" fill="#FF5555"/>
	<rect x="18" y="22" width="13" height="20" rx="1" ry="1" fill="#FFAA00"/>
	<rect x="18" y="26" width="13" height="12" rx="1" ry="1" fill="#55AA55"/>
	<rect x="18" y="30" width="13" height="4" rx="1" ry="1" fill="#5555FF"/>
	
	<!-- Grayscale spectrum on right -->
	<rect x="33" y="18" width="13" height="28" rx="1" ry="1" fill="#333333"/>
	<rect x="33" y="22" width="13" height="20" rx="1" ry="1" fill="#666666"/>
	<rect x="33" y="26" width="13" height="12" rx="1" ry="1" fill="#999999"/>
	<rect x="33" y="30" width="13" height="4" rx="1" ry="1" fill="#CCCCCC"/>
	
	<!-- Divider line -->
	<rect x="31" y="18" width="2" height="28" fill="#231F20"/>
	
	<!-- Filter icon -->
	<circle cx="24" cy="40" r="2" fill="#FFFFFF" stroke="#231F20" stroke-width="0.5"/>
	<circle cx="40" cy="40" r="2" fill="#FFFFFF" stroke="#231F20" stroke-width="0.5"/>
	<path d="M26,40 L38,40" stroke="#231F20" stroke-width="1" stroke-dasharray="1,1"/>
	<polygon points="38,40 36,38 36,42" fill="#231F20"/>
</g>
</svg>