<?xml version="1.0" encoding="utf-8"?>
<svg version="1.1" xmlns="http://www.w3.org/2000/svg" xmlns:xlink="http://www.w3.org/1999/xlink" x="0px" y="0px"
	 viewBox="0 0 64 64" style="enable-background:new 0 0 64 64;" xml:space="preserve">
<style type="text/css">
	.st0{fill:#E0995E;}
	.st1{opacity:0.2;}
	.st2{fill:#231F20;}
	.st3{fill:#77B3D4;}
	.st4{fill:#FFFFFF;}
	.st5{fill:#4F5D73;}
	.st6{fill:#F5CF87;}
</style>
<g id="Layer_1">
	<circle class="st0" cx="32" cy="32" r="32"/>
</g>
<g class="st1">
	<g>
		<path class="st2" d="M48,14H16c-2.2,0-4,1.8-4,4v8v24c0,2.2,1.8,4,4,4h32c2.2,0,4-1.8,4-4V26v-8C52,15.8,50.2,14,48,14z"/>
	</g>
</g>
<g id="Layer_2">
	<!-- Main image frame - slightly rotated -->
	<rect x="24" y="18" width="24" height="24" rx="2" ry="2" class="st4" transform="rotate(15 36 30)"/>
	
	<!-- Image content - slightly rotated -->
	<rect x="26" y="20" width="20" height="8" fill="#77B3D4" transform="rotate(15 36 30)"/>
	<rect x="26" y="28" width="20" height="12" fill="#4F5D73" transform="rotate(15 36 30)"/>
	<circle cx="38" cy="24" r="2" fill="#F5CF87" transform="rotate(15 36 30)"/>
	
	<!-- Main image frame - original position -->
	<rect x="16" y="22" width="24" height="24" rx="2" ry="2" class="st4"/>
	
	<!-- Image content - original position -->
	<rect x="18" y="24" width="20" height="8" fill="#77B3D4"/>
	<rect x="18" y="32" width="20" height="12" fill="#4F5D73"/>
	<circle cx="30" cy="28" r="2" fill="#F5CF87"/>
	
	<!-- Improved rotation arrow -->
	<g>
		<!-- Circular arrow path -->
		<path d="M28,16 A16,16 0 0,1 48,32" fill="none" stroke="#231F20" stroke-width="2.5" stroke-linecap="round"/>
		
		<!-- Arrow head - more elegant -->
		<path d="M48,32 L44,27 M48,32 L51,26" stroke="#231F20" stroke-width="2.5" stroke-linecap="round"/>
	</g>
</g>
</svg>